# xmcd CD database file
#
# Track frame offsets:
#	150
#	14605
#	31743
#	49066
#	63871
#	82321
#	94112
#	116535
#	133174
#	150532
#	163845
#	186102
#	200891
#	220365
#	234037
#	252223
#
# Disc length: 3581 seconds
#
# Revision: 0
# Processed by: cddbd v1.5.2PL0 Copyright (c) Steve Scherf et al.
# Submitted via: CDex 1.70beta2
#
DISCID=dd0dfb10
DTITLE=Jay Ottaway - Coming Home To You
DYEAR=2012
DGENRE=Blues
TTITLE0=kiss you goodbye
TTITLE1=love died young
TTITLE2=coming home to you
TTITLE3=without you
TTITLE4=christine
TTITLE5=all this rain
TTITLE6=one for the teacher
TTITLE7=falling hard again
TTITLE8=my little boy
TTITLE9=right before your eyes
TTITLE10=long way to ipswich
TTITLE11=let it shine
TTITLE12=come to me
TTITLE13=second chance
TTITLE14=remember those days
TTITLE15=wonder why
EXTD=YEAR: 2012
EXTT0=
EXTT1=
EXTT2=
EXTT3=
EXTT4=
EXTT5=
EXTT6=
EXTT7=
EXTT8=
EXTT9=
EXTT10=
EXTT11=
EXTT12=
EXTT13=
EXTT14=
EXTT15=
PLAYORDER=
